grf
version=1
nRows=21
nColumns=46
inDegrees=yes
endheader
time	ground_force_1_vx	ground_force_1_vy	ground_force_1_vz	ground_force_1_px	ground_force_1_py	ground_force_1_pz	ground_moment_1_mx	ground_moment_1_my	ground_moment_1_mz	ground_force_2_vx	ground_force_2_vy	ground_force_2_vz	ground_force_2_px	ground_force_2_py	ground_force_2_pz	ground_moment_2_mx	ground_moment_2_my	ground_moment_2_mz	ground_force_3_vx	ground_force_3_vy	ground_force_3_vz	ground_force_3_px	ground_force_3_py	ground_force_3_pz	ground_moment_3_mx	ground_moment_3_my	ground_moment_3_mz	ground_force_4_vx	ground_force_4_vy	ground_force_4_vz	ground_force_4_px	ground_force_4_py	ground_force_4_pz	ground_moment_4_mx	ground_moment_4_my	ground_moment_4_mz	ground_force_5_vx	ground_force_5_vy	ground_force_5_vz	ground_force_5_px	ground_force_5_py	ground_force_5_pz	ground_moment_5_mx	ground_moment_5_my	ground_moment_5_mz
0.000000	0.000000	0.000000	0.000000	0.000000	0.000000	0.000000	0.000000	0.000000	0.000000	0.000000	0.000000	0.000000	0.000000	0.000000	0.000000	0.000000	0.000000	0.000000	0.000000	0.000000	0.000000	0.000000	0.000000	0.000000	0.000000	0.000000	0.000000	1.521600	421.501138	-99.041440	0.192849	0.000000	-0.889957	-0.000000	4.393027	0.000000	-6.138638	425.492396	110.879617	0.218484	0.000000	-1.588647	0.000000	-1.573329	-0.000000
0.000500	0.000000	0.000000	0.000000	0.000000	0.000000	0.000000	0.000000	0.000000	0.000000	0.000000	0.000000	0.000000	0.000000	0.000000	0.000000	0.000000	0.000000	0.000000	0.000000	0.000000	0.000000	0.000000	0.000000	0.000000	0.000000	0.000000	0.000000	1.536155	421.293740	-98.989212	0.192824	0.000000	-0.889968	-0.000000	4.386945	0.000000	-6.183428	425.458169	110.907310	0.218541	0.000000	-1.588663	0.000000	-1.568951	-0.000000
0.001000	0.000000	0.000000	0.000000	0.000000	0.000000	0.000000	0.000000	0.000000	0.000000	0.000000	0.000000	0.000000	0.000000	0.000000	0.000000	0.000000	0.000000	0.000000	0.000000	0.000000	0.000000	0.000000	0.000000	0.000000	0.000000	0.000000	0.000000	1.551317	421.077393	-98.933581	0.192799	0.000000	-0.889979	-0.000000	4.380762	0.000000	-6.228902	425.422581	110.933635	0.218598	0.000000	-1.588678	0.000000	-1.564791	-0.000000
0.001500	0.000000	0.000000	0.000000	0.000000	0.000000	0.000000	0.000000	0.000000	0.000000	0.000000	0.000000	0.000000	0.000000	0.000000	0.000000	0.000000	0.000000	0.000000	0.000000	0.000000	0.000000	0.000000	0.000000	0.000000	0.000000	0.000000	0.000000	1.567083	420.852067	-98.874426	0.192774	0.000000	-0.889990	-0.000000	4.374483	0.000000	-6.274986	425.385604	110.958398	0.218655	0.000000	-1.588694	0.000000	-1.560875	-0.000000
0.002000	0.000000	0.000000	0.000000	0.000000	0.000000	0.000000	0.000000	0.000000	0.000000	0.000000	0.000000	0.000000	0.000000	0.000000	0.000000	0.000000	0.000000	0.000000	0.000000	0.000000	0.000000	0.000000	0.000000	0.000000	0.000000	0.000000	0.000000	1.583443	420.617739	-98.811639	0.192748	0.000000	-0.890002	-0.000000	4.368114	0.000000	-6.321601	425.347225	110.981420	0.218713	0.000000	-1.588711	0.000000	-1.557228	-0.000000
0.002500	0.000000	0.000000	0.000000	0.000000	0.000000	0.000000	0.000000	0.000000	0.000000	0.000000	0.000000	0.000000	0.000000	0.000000	0.000000	0.000000	0.000000	0.000000	0.000000	0.000000	0.000000	0.000000	0.000000	0.000000	0.000000	0.000000	0.000000	1.600389	420.374387	-98.745127	0.192723	0.000000	-0.890013	-0.000000	4.361660	0.000000	-6.368660	425.307432	111.002537	0.218772	0.000000	-1.588727	0.000000	-1.553869	-0.000000
0.003000	0.000000	0.000000	0.000000	0.000000	0.000000	0.000000	0.000000	0.000000	0.000000	0.000000	0.000000	0.000000	0.000000	0.000000	0.000000	0.000000	0.000000	0.000000	0.000000	0.000000	0.000000	0.000000	0.000000	0.000000	0.000000	0.000000	0.000000	1.617905	420.122000	-98.674811	0.192698	0.000000	-0.890024	-0.000000	4.355131	0.000000	-6.416074	425.266204	111.021599	0.218830	0.000000	-1.588744	0.000000	-1.550817	-0.000000
0.003500	0.000000	0.000000	0.000000	0.000000	0.000000	0.000000	0.000000	0.000000	0.000000	0.000000	0.000000	0.000000	0.000000	0.000000	0.000000	0.000000	0.000000	0.000000	0.000000	0.000000	0.000000	0.000000	0.000000	0.000000	0.000000	0.000000	0.000000	1.635971	419.860573	-98.600624	0.192673	0.000000	-0.890035	-0.000000	4.348535	0.000000	-6.463752	425.223503	111.038468	0.218889	0.000000	-1.588762	0.000000	-1.548089	-0.000000
0.004000	0.000000	0.000000	0.000000	0.000000	0.000000	0.000000	0.000000	0.000000	0.000000	0.000000	0.000000	0.000000	0.000000	0.000000	0.000000	0.000000	0.000000	0.000000	0.000000	0.000000	0.000000	0.000000	0.000000	0.000000	0.000000	0.000000	0.000000	1.654566	419.590112	-98.522512	0.192648	0.000000	-0.890047	-0.000000	4.341882	0.000000	-6.511603	425.179291	111.053021	0.218948	0.000000	-1.588780	0.000000	-1.545696	-0.000000
0.004500	0.000000	0.000000	0.000000	0.000000	0.000000	0.000000	0.000000	0.000000	0.000000	0.000000	0.000000	0.000000	0.000000	0.000000	0.000000	0.000000	0.000000	0.000000	0.000000	0.000000	0.000000	0.000000	0.000000	0.000000	0.000000	0.000000	0.000000	1.673672	419.310633	-98.440431	0.192623	0.000000	-0.890058	-0.000000	4.335179	0.000000	-6.559535	425.133538	111.065144	0.219007	0.000000	-1.588798	0.000000	-1.543649	-0.000000
0.005000	0.000000	0.000000	0.000000	0.000000	0.000000	0.000000	0.000000	0.000000	0.000000	0.000000	0.000000	0.000000	0.000000	0.000000	0.000000	0.000000	0.000000	0.000000	0.000000	0.000000	0.000000	0.000000	0.000000	0.000000	0.000000	0.000000	0.000000	1.693275	419.022167	-98.354353	0.192598	0.000000	-0.890069	-0.000000	4.328436	0.000000	-6.607451	425.086235	111.074732	0.219066	0.000000	-1.588817	0.000000	-1.541955	-0.000000
0.005500	0.000000	0.000000	0.000000	0.000000	0.000000	0.000000	0.000000	0.000000	0.000000	0.000000	0.000000	0.000000	0.000000	0.000000	0.000000	0.000000	0.000000	0.000000	0.000000	0.000000	0.000000	0.000000	0.000000	0.000000	0.000000	0.000000	0.000000	1.713363	418.724760	-98.264256	0.192574	0.000000	-0.890080	-0.000000	4.321661	0.000000	-6.655251	425.037383	111.081683	0.219125	0.000000	-1.588835	0.000000	-1.540620	-0.000000
0.006000	0.000000	0.000000	0.000000	0.000000	0.000000	0.000000	0.000000	0.000000	0.000000	0.000000	0.000000	0.000000	0.000000	0.000000	0.000000	0.000000	0.000000	0.000000	0.000000	0.000000	0.000000	0.000000	0.000000	0.000000	0.000000	0.000000	0.000000	1.733923	418.418479	-98.170131	0.192550	0.000000	-0.890091	-0.000000	4.314859	0.000000	-6.702832	424.986986	111.085903	0.219183	0.000000	-1.588854	0.000000	-1.539647	-0.000000
0.006500	0.000000	0.000000	0.000000	0.000000	0.000000	0.000000	0.000000	0.000000	0.000000	0.000000	0.000000	0.000000	0.000000	0.000000	0.000000	0.000000	0.000000	0.000000	0.000000	0.000000	0.000000	0.000000	0.000000	0.000000	0.000000	0.000000	0.000000	1.754940	418.103410	-98.071974	0.192526	0.000000	-0.890103	-0.000000	4.308036	0.000000	-6.750093	424.935045	111.087304	0.219241	0.000000	-1.588874	0.000000	-1.539038	-0.000000
0.007000	0.000000	0.000000	0.000000	0.000000	0.000000	0.000000	0.000000	0.000000	0.000000	0.000000	0.000000	0.000000	0.000000	0.000000	0.000000	0.000000	0.000000	0.000000	0.000000	0.000000	0.000000	0.000000	0.000000	0.000000	0.000000	0.000000	0.000000	1.776399	417.779653	-97.969789	0.192502	0.000000	-0.890114	-0.000000	4.301196	0.000000	-6.796933	424.881564	111.085810	0.219299	0.000000	-1.588893	0.000000	-1.538794	-0.000000
0.007500	0.000000	0.000000	0.000000	0.000000	0.000000	0.000000	0.000000	0.000000	0.000000	0.000000	0.000000	0.000000	0.000000	0.000000	0.000000	0.000000	0.000000	0.000000	0.000000	0.000000	0.000000	0.000000	0.000000	0.000000	0.000000	0.000000	0.000000	1.798284	417.447331	-97.863586	0.192479	0.000000	-0.890125	-0.000000	4.294340	0.000000	-6.843253	424.826554	111.081352	0.219356	0.000000	-1.588913	0.000000	-1.538915	-0.000000
0.008000	0.000000	0.000000	0.000000	0.000000	0.000000	0.000000	0.000000	0.000000	0.000000	0.000000	0.000000	0.000000	0.000000	0.000000	0.000000	0.000000	0.000000	0.000000	0.000000	0.000000	0.000000	0.000000	0.000000	0.000000	0.000000	0.000000	0.000000	1.820580	417.106587	-97.753382	0.192456	0.000000	-0.890136	-0.000000	4.287475	0.000000	-6.888950	424.770040	111.073873	0.219413	0.000000	-1.588933	0.000000	-1.539400	-0.000000
0.008500	0.000000	0.000000	0.000000	0.000000	0.000000	0.000000	0.000000	0.000000	0.000000	0.000000	0.000000	0.000000	0.000000	0.000000	0.000000	0.000000	0.000000	0.000000	0.000000	0.000000	0.000000	0.000000	0.000000	0.000000	0.000000	0.000000	0.000000	1.843275	416.757592	-97.639194	0.192433	0.000000	-0.890147	-0.000000	4.280603	0.000000	-6.933915	424.712065	111.063323	0.219469	0.000000	-1.588953	0.000000	-1.540247	-0.000000
0.009000	0.000000	0.000000	0.000000	0.000000	0.000000	0.000000	0.000000	0.000000	0.000000	0.000000	0.000000	0.000000	0.000000	0.000000	0.000000	0.000000	0.000000	0.000000	0.000000	0.000000	0.000000	0.000000	0.000000	0.000000	0.000000	0.000000	0.000000	1.866350	416.400530	-97.521047	0.192411	0.000000	-0.890158	-0.000000	4.273728	0.000000	-6.978040	424.652685	111.049655	0.219524	0.000000	-1.588974	0.000000	-1.541454	-0.000000
0.009500	0.000000	0.000000	0.000000	0.000000	0.000000	0.000000	0.000000	0.000000	0.000000	0.000000	0.000000	0.000000	0.000000	0.000000	0.000000	0.000000	0.000000	0.000000	0.000000	0.000000	0.000000	0.000000	0.000000	0.000000	0.000000	0.000000	0.000000	1.889784	416.035588	-97.398969	0.192389	0.000000	-0.890170	-0.000000	4.266853	0.000000	-7.021215	424.591975	111.032835	0.219579	0.000000	-1.588994	0.000000	-1.543017	-0.000000
0.010000	0.000000	0.000000	0.000000	0.000000	0.000000	0.000000	0.000000	0.000000	0.000000	0.000000	0.000000	0.000000	0.000000	0.000000	0.000000	0.000000	0.000000	0.000000	0.000000	0.000000	0.000000	0.000000	0.000000	0.000000	0.000000	0.000000	0.000000	1.913556	415.662952	-97.272989	0.192368	0.000000	-0.890181	-0.000000	4.259980	0.000000	-7.063337	424.530013	111.012843	0.219632	0.000000	-1.589015	0.000000	-1.544930	-0.000000
